<svg width="30" height="30" viewBox="0 0 30 30" fill="none" xmlns="http://www.w3.org/2000/svg">
<path d="M15 0C23.2843 0 30 6.71573 30 15C30 23.2843 23.2843 30 15 30C6.71573 30 0 23.2843 0 15C0 6.71573 6.71573 0 15 0ZM20.71 11.8711C20.0321 11.8711 19.3873 12.0007 18.9033 12.2256C18.3522 12.4484 17.8565 12.7899 17.4521 13.2256C17.0321 13.6456 16.7104 14.129 16.4844 14.71C16.2474 15.3048 16.1264 15.9398 16.1289 16.5801C16.1289 17.2579 16.2262 17.9026 16.4521 18.4834C16.6771 19.0634 17.0005 19.5158 17.3555 19.9678C17.7753 20.3876 18.225 20.7096 18.8057 20.9355C19.4111 21.1768 20.0582 21.2979 20.71 21.291C21.71 21.291 22.58 21.0643 23.29 20.6123C24.0319 20.1613 24.5161 19.3868 24.8711 18.291H22.7412C22.6452 18.549 22.4186 18.8385 22.0967 19.0645C21.7737 19.2904 21.3228 19.4199 20.8389 19.4199C20.161 19.4199 19.6128 19.226 19.2588 18.8711C18.9028 18.5161 18.6768 17.8388 18.6768 17.1289H25C25 16.4519 24.9686 15.7734 24.8066 15.1934C24.6766 14.5486 24.3871 13.9995 24.0322 13.5156C23.6679 13.0286 23.206 12.622 22.6768 12.3223C22.0622 12.0295 21.3907 11.8759 20.71 11.8711ZM5 20.9678H10.9678C11.5158 20.9678 12.0649 20.9352 12.5479 20.7412C13.058 20.6191 13.5401 20.4005 13.9678 20.0967C14.3877 19.8387 14.7096 19.4517 14.9346 18.9678C15.1606 18.5158 15.29 17.9673 15.29 17.3223C15.29 16.5484 15.0971 15.8704 14.7422 15.3545C14.3552 14.9025 13.8057 14.5483 13.0967 14.3223C13.6447 14.0963 14.0652 13.7423 14.3232 13.3223C14.5811 12.9023 14.7422 12.3543 14.7422 11.7734C14.7422 11.2255 14.6454 10.7412 14.4844 10.3223C14.2904 9.90236 14.0317 9.58046 13.6768 9.35449C13.3052 9.10594 12.8895 8.93103 12.4521 8.83887C11.93 8.74662 11.4003 8.70353 10.8701 8.70996H5V20.9678ZM10.6768 15.5156C11.2576 15.5156 11.7097 15.6457 12.0967 15.9355C12.4517 16.1935 12.6445 16.678 12.6445 17.291C12.5806 17.6128 12.5811 17.8708 12.4521 18.0967C12.3551 18.3227 12.226 18.4521 12 18.5811C11.8062 18.7099 11.5802 18.8065 11.3555 18.8066C11.1296 18.8386 10.8712 18.8389 10.6133 18.8389H7.70996V15.5156H10.6768ZM20.6436 13.709C21.2234 13.709 21.741 13.9025 21.999 14.1934C22.257 14.5153 22.4828 14.9675 22.5469 15.6133H18.5469C18.547 15.3865 18.644 15.1606 18.709 14.9678C18.805 14.7418 18.9025 14.5155 19.0635 14.3545C19.2574 14.1606 19.5156 13.9678 19.7734 13.8389C20.0313 13.7091 20.3528 13.709 20.6436 13.709ZM10.29 10.8389C10.516 10.8389 10.7419 10.8711 10.9678 10.8711C11.1937 10.8711 11.4188 11.0007 11.5479 11.0967C11.7407 11.1878 11.8911 11.3498 11.9678 11.5488C12.0648 11.7418 12.0967 11.968 12.0967 12.291C12.0966 12.7739 11.9665 13.194 11.6445 13.4199C11.2829 13.6316 10.8712 13.7422 10.4521 13.7412H7.74219V10.8389H10.29ZM18.0322 10.7734H23.0322V9.54883H18.0322V10.7734Z" fill="black"/>
</svg>
