<svg width="30" height="30" viewBox="0 0 30 30" fill="none" xmlns="http://www.w3.org/2000/svg">
<circle cx="15" cy="15" r="15" fill="black"/>
<path d="M11.22 6H18.78C21.66 6 24 8.34 24 11.22V18.78C24 20.1644 23.45 21.4922 22.4711 22.4711C21.4922 23.45 20.1644 24 18.78 24H11.22C8.34 24 6 21.66 6 18.78V11.22C6 9.83557 6.54996 8.50784 7.5289 7.5289C8.50784 6.54996 9.83557 6 11.22 6ZM11.04 7.8C10.1807 7.8 9.35659 8.14136 8.74897 8.74897C8.14136 9.35659 7.8 10.1807 7.8 11.04V18.96C7.8 20.751 9.249 22.2 11.04 22.2H18.96C19.8193 22.2 20.6434 21.8586 21.251 21.251C21.8586 20.6434 22.2 19.8193 22.2 18.96V11.04C22.2 9.249 20.751 7.8 18.96 7.8H11.04ZM19.725 9.15C20.0234 9.15 20.3095 9.26853 20.5205 9.4795C20.7315 9.69048 20.85 9.97663 20.85 10.275C20.85 10.5734 20.7315 10.8595 20.5205 11.0705C20.3095 11.2815 20.0234 11.4 19.725 11.4C19.4266 11.4 19.1405 11.2815 18.9295 11.0705C18.7185 10.8595 18.6 10.5734 18.6 10.275C18.6 9.97663 18.7185 9.69048 18.9295 9.4795C19.1405 9.26853 19.4266 9.15 19.725 9.15ZM15 10.5C16.1935 10.5 17.3381 10.9741 18.182 11.818C19.0259 12.6619 19.5 13.8065 19.5 15C19.5 16.1935 19.0259 17.3381 18.182 18.182C17.3381 19.0259 16.1935 19.5 15 19.5C13.8065 19.5 12.6619 19.0259 11.818 18.182C10.9741 17.3381 10.5 16.1935 10.5 15C10.5 13.8065 10.9741 12.6619 11.818 11.818C12.6619 10.9741 13.8065 10.5 15 10.5ZM15 12.3C14.2839 12.3 13.5972 12.5845 13.0908 13.0908C12.5845 13.5972 12.3 14.2839 12.3 15C12.3 15.7161 12.5845 16.4028 13.0908 16.9092C13.5972 17.4155 14.2839 17.7 15 17.7C15.7161 17.7 16.4028 17.4155 16.9092 16.9092C17.4155 16.4028 17.7 15.7161 17.7 15C17.7 14.2839 17.4155 13.5972 16.9092 13.0908C16.4028 12.5845 15.7161 12.3 15 12.3Z" fill="white"/>
</svg>
