<svg width="30" height="30" viewBox="0 0 30 30" fill="none" xmlns="http://www.w3.org/2000/svg">
<path d="M15 0C23.2843 0 30 6.71573 30 15C30 23.2843 23.2843 30 15 30C6.71573 30 0 23.2843 0 15C0 6.71573 6.71573 0 15 0ZM11.2197 6C9.8354 6.00007 8.50817 6.55042 7.5293 7.5293C6.55042 8.50817 6.00007 9.8354 6 11.2197V18.7803C6.00015 21.6601 8.33994 23.9999 11.2197 24H18.7803C20.1646 23.9999 21.4918 23.4496 22.4707 22.4707C23.4496 21.4918 23.9999 20.1646 24 18.7803V11.2197C23.9999 8.33994 21.6601 6.00015 18.7803 6H11.2197ZM18.96 7.7998C20.751 7.7998 22.2002 9.24904 22.2002 11.04V18.96C22.2002 19.8193 21.8586 20.6434 21.251 21.251C20.6434 21.8586 19.8193 22.2002 18.96 22.2002H11.04C9.24904 22.2002 7.7998 20.751 7.7998 18.96V11.04C7.7998 10.1807 8.14141 9.35664 8.74902 8.74902C9.35664 8.14141 10.1807 7.7998 11.04 7.7998H18.96ZM15 10.5C13.8065 10.5 12.6623 10.9744 11.8184 11.8184C10.9744 12.6623 10.5 13.8065 10.5 15C10.5 16.1935 10.9744 17.3377 11.8184 18.1816C12.6623 19.0256 13.8065 19.5 15 19.5C16.1935 19.5 17.3377 19.0256 18.1816 18.1816C19.0256 17.3377 19.5 16.1935 19.5 15C19.5 13.8065 19.0256 12.6623 18.1816 11.8184C17.3377 10.9744 16.1935 10.5 15 10.5ZM15 12.2998C15.7161 12.2998 16.4028 12.5845 16.9092 13.0908C17.4155 13.5972 17.7002 14.2839 17.7002 15C17.7002 15.7161 17.4155 16.4028 16.9092 16.9092C16.4028 17.4155 15.7161 17.7002 15 17.7002C14.2839 17.7002 13.5972 17.4155 13.0908 16.9092C12.5845 16.4028 12.2998 15.7161 12.2998 15C12.2998 14.2839 12.5845 13.5972 13.0908 13.0908C13.5972 12.5845 14.2839 12.2998 15 12.2998ZM19.7246 9.15039C19.4264 9.15049 19.1406 9.26867 18.9297 9.47949C18.7187 9.69047 18.5996 9.97702 18.5996 10.2754C18.5997 10.5736 18.7188 10.8594 18.9297 11.0703C19.1406 11.2812 19.4264 11.4003 19.7246 11.4004C20.023 11.4004 20.3095 11.2813 20.5205 11.0703C20.7313 10.8594 20.8495 10.5736 20.8496 10.2754C20.8496 9.97702 20.7315 9.69047 20.5205 9.47949C20.3095 9.26851 20.023 9.15039 19.7246 9.15039Z" fill="black"/>
</svg>
