<svg width="69" height="69" viewBox="0 0 69 69" fill="none" xmlns="http://www.w3.org/2000/svg">
<g clip-path="url(#clip0_2_28)">
<path d="M34.5 69C53.5538 69 69 53.5538 69 34.5C69 15.4462 53.5538 0 34.5 0C15.4462 0 0 15.4462 0 34.5C0 53.5538 15.4462 69 34.5 69Z" fill="url(#paint0_linear_2_28)"/>
<path d="M32.8201 48.1212H22V20H32.7102C35.6029 20 38.102 20.563 40.2074 21.6889C42.322 22.8057 43.9514 24.4168 45.0956 26.5223C46.2491 28.6185 46.8258 31.1313 46.8258 34.0606C46.8258 36.9899 46.2536 39.5073 45.1094 41.6127C43.9651 43.709 42.3449 45.3201 40.2486 46.446C38.1523 47.5628 35.6761 48.1212 32.8201 48.1212ZM29.6345 41.6402H32.5455C33.9369 41.6402 35.1223 41.4159 36.1018 40.9673C37.0904 40.5188 37.8411 39.7453 38.3537 38.6468C38.8755 37.5483 39.1364 36.0196 39.1364 34.0606C39.1364 32.1016 38.8709 30.5729 38.34 29.4744C37.8182 28.3759 37.0492 27.6024 36.0331 27.1539C35.0262 26.7053 33.7904 26.4811 32.3258 26.4811H29.6345V41.6402Z" fill="white"/>
</g>
<defs>
<linearGradient id="paint0_linear_2_28" x1="34.5" y1="0" x2="34.5" y2="69" gradientUnits="userSpaceOnUse">
<stop stop-color="#001A6E"/>
<stop offset="1" stop-color="#074799"/>
</linearGradient>
<clipPath id="clip0_2_28">
<rect width="69" height="69" fill="white"/>
</clipPath>
</defs>
</svg>
